# xmcd CD database file
#
# Track frame offsets:
#	150
#	18416
#	30570
#	51306
#	76074
#	98545
#	114053
#	132274
#	157894
#	174355
#	192320
#	215354
#	240551
#	259611
#
# Disc length: 3621 seconds
#
# Revision: 1
# Processed by: cddbd v1.5.1PL0 Copyright (c) Steve Scherf et al.
# Submitted via: CDex 1.51
#
DISCID=a10e230e
DTITLE=Crystal Kay - Crystal Style
DYEAR=2005
DGENRE=JPop
TTITLE0=Bye My Darling!
TTITLE1=MAKE YOU MINE
TTITLE2=BET YOU DON'T KNOW
TTITLE3=Kiss
TTITLE4=Tears
TTITLE5=LOVE it TAKE it
TTITLE6=&BRAND-NEW
TTITLE7=flowers
TTITLE8=Magic
TTITLE9=We Gonna Boogie
TTITLE10=Baby Cop feat. Mummy-D (マボロシ/Rhymester）
TTITLE11=MY EVERYTHING
TTITLE12=home girl
TTITLE13=MAKE YOU MINE (English Version)
EXTD=YEAR: 2005
EXTT0=
EXTT1=
EXTT2=
EXTT3=
EXTT4=
EXTT5=
EXTT6=
EXTT7=
EXTT8=
EXTT9=
EXTT10=
EXTT11=
EXTT12=
EXTT13=
PLAYORDER=
